# xmcd
#
# Track frame offsets: 
#        183
#        10363
#        19095
#        27633
#        37105
#        46658
#        54900
#        65325
#        73405
#        83303
#        91673
#        102448
#        108353
#        117365
#        128895
#        137280
#        147313
#
# Disc length: 2117 seconds
#
# Revision: 4
# Processed by: cddbd v1.5.2PL0 Copyright (c) Steve Scherf et al.
# Submitted via: ExactAudioCopy v0.99pb5
#
DISCID=e0084311
DTITLE=Elvis Presley - Elvis Through The Years Vol. 6 - As Long As I H
DTITLE=ave You
DYEAR=1991
DGENRE=Rock and Roll
TTITLE0=Wear My Ring Around Your Neck
TTITLE1=Doncha' Think It's Time
TTITLE2=Hard Headed Woman
TTITLE3=Don't Ask Me Why
TTITLE4=King Creole
TTITLE5=As Long As I Have You
TTITLE6=Trouble
TTITLE7=Dixieland Rock
TTITLE8=Lover Doll
TTITLE9=Crawfish
TTITLE10=Young Dreams
TTITLE11=Steadfast, Loyal And True
TTITLE12=New Orleans
TTITLE13=One Night
TTITLE14=I Got Stung
TTITLE15=A Big Hunk O' Love
TTITLE16=My Wish Come True
EXTD=
EXTT0=
EXTT1=
EXTT2=
EXTT3=
EXTT4=
EXTT5=
EXTT6=
EXTT7=
EXTT8=
EXTT9=
EXTT10=
EXTT11=
EXTT12=
EXTT13=
EXTT14=
EXTT15=
EXTT16=
PLAYORDER=
